<svg width="312" height="78" viewBox="0 0 312 78" fill="none" xmlns="http://www.w3.org/2000/svg">
<circle cx="38.7879" cy="38.7879" r="38.7879" fill="#F2D5A9"/>
<path d="M38.7879 77.5758C43.8816 77.5758 48.9254 76.5725 53.6314 74.6232C58.3373 72.6739 62.6133 69.8168 66.2151 66.2151C69.8168 62.6133 72.6739 58.3373 74.6232 53.6314C76.5725 48.9254 77.5758 43.8816 77.5758 38.7879C77.5758 33.6942 76.5725 28.6504 74.6232 23.9444C72.6739 19.2384 69.8168 14.9625 66.2151 11.3607C62.6133 7.75892 58.3373 4.90182 53.6314 2.95255C48.9254 1.00328 43.8816 -2.22653e-07 38.7879 0L38.7879 38.7879L38.7879 77.5758Z" fill="#008C76"/>
<path d="M37.856 32.851C38.2713 32.1356 39.3044 32.1356 39.7196 32.851L55.0172 59.2032C55.4342 59.9215 54.9159 60.8216 54.0854 60.8216H23.4902C22.6597 60.8216 22.1414 59.9215 22.5584 59.2032L37.856 32.851Z" fill="#F2D5A9"/>
<path d="M37.8564 22.0735C38.2718 21.359 39.3039 21.359 39.7193 22.0735L51.2831 41.9635C51.7007 42.6818 51.1825 43.5825 50.3517 43.5825H27.2241C26.3932 43.5825 25.875 42.6818 26.2926 41.9635L37.8564 22.0735Z" fill="#F2D5A9"/>
<path d="M37.8572 16.0319C38.273 15.3195 39.3024 15.3195 39.7182 16.0319L46.4262 27.5242C46.8455 28.2425 46.3274 29.1448 45.4957 29.1448H32.0797C31.248 29.1448 30.7299 28.2425 31.1492 27.5242L37.8572 16.0319Z" fill="#F2D5A9"/>
<mask id="mask0_787_216" style="mask-type:alpha" maskUnits="userSpaceOnUse" x="0" y="0" width="39" height="78">
<path d="M38.7878 77.7913C33.6941 77.7913 28.6503 76.788 23.9444 74.8387C19.2384 72.8894 14.9625 70.0323 11.3607 66.4305C7.75888 62.8288 4.90179 58.5528 2.95251 53.8469C1.00324 49.1409 -3.8147e-05 44.0971 -3.8147e-05 39.0034C-3.8147e-05 33.9097 1.00324 28.8659 2.95251 24.1599C4.90179 19.4539 7.75888 15.178 11.3607 11.5762C14.9625 7.97441 19.2384 5.11732 23.9444 3.16805C28.6503 1.21877 33.6941 0.215495 38.7878 0.215495V39.0034V77.7913Z" fill="#D18A79"/>
</mask>
<g mask="url(#mask0_787_216)">
<path d="M37.856 32.851C38.2713 32.1356 39.3044 32.1356 39.7196 32.851L55.0172 59.2032C55.4342 59.9215 54.9159 60.8216 54.0854 60.8216H23.4902C22.6597 60.8216 22.1414 59.9215 22.5584 59.2032L37.856 32.851Z" fill="#008C76"/>
<path d="M37.8564 22.0735C38.2718 21.359 39.3039 21.359 39.7193 22.0735L51.2831 41.9635C51.7007 42.6818 51.1825 43.5825 50.3517 43.5825H27.2241C26.3932 43.5825 25.875 42.6818 26.2926 41.9635L37.8564 22.0735Z" fill="#008C76"/>
<path d="M37.8572 16.0319C38.273 15.3195 39.3024 15.3195 39.7182 16.0319L46.4262 27.5242C46.8455 28.2425 46.3274 29.1448 45.4957 29.1448H32.0797C31.248 29.1448 30.7299 28.2425 31.1492 27.5242L37.8572 16.0319Z" fill="#008C76"/>
</g>
<path d="M110.76 22.92V28.4H99.32V34.32H107.88V39.64H99.32V51H92.48V22.92H110.76ZM112.995 39.8C112.995 37.5067 113.422 35.4933 114.275 33.76C115.155 32.0267 116.342 30.6933 117.835 29.76C119.328 28.8267 120.995 28.36 122.835 28.36C124.408 28.36 125.782 28.68 126.955 29.32C128.155 29.96 129.075 30.8 129.715 31.84V28.68H136.555V51H129.715V47.84C129.048 48.88 128.115 49.72 126.915 50.36C125.742 51 124.368 51.32 122.795 51.32C120.982 51.32 119.328 50.8533 117.835 49.92C116.342 48.96 115.155 47.6133 114.275 45.88C113.422 44.12 112.995 42.0933 112.995 39.8ZM129.715 39.84C129.715 38.1333 129.235 36.7867 128.275 35.8C127.342 34.8133 126.195 34.32 124.835 34.32C123.475 34.32 122.315 34.8133 121.355 35.8C120.422 36.76 119.955 38.0933 119.955 39.8C119.955 41.5067 120.422 42.8667 121.355 43.88C122.315 44.8667 123.475 45.36 124.835 45.36C126.195 45.36 127.342 44.8667 128.275 43.88C129.235 42.8933 129.715 41.5467 129.715 39.84ZM148.343 32.4C149.143 31.1733 150.143 30.2133 151.343 29.52C152.543 28.8 153.877 28.44 155.343 28.44V35.68H153.463C151.757 35.68 150.477 36.0533 149.623 36.8C148.77 37.52 148.343 38.8 148.343 40.64V51H141.503V28.68H148.343V32.4ZM187.093 28.44C189.866 28.44 192.066 29.28 193.693 30.96C195.346 32.64 196.173 34.9733 196.173 37.96V51H189.373V38.88C189.373 37.44 188.986 36.3333 188.213 35.56C187.466 34.76 186.426 34.36 185.093 34.36C183.759 34.36 182.706 34.76 181.933 35.56C181.186 36.3333 180.813 37.44 180.813 38.88V51H174.013V38.88C174.013 37.44 173.626 36.3333 172.853 35.56C172.106 34.76 171.066 34.36 169.733 34.36C168.399 34.36 167.346 34.76 166.573 35.56C165.826 36.3333 165.453 37.44 165.453 38.88V51H158.613V28.68H165.453V31.48C166.146 30.5467 167.053 29.8133 168.173 29.28C169.293 28.72 170.559 28.44 171.973 28.44C173.653 28.44 175.146 28.8 176.453 29.52C177.786 30.24 178.826 31.2667 179.573 32.6C180.346 31.3733 181.399 30.3733 182.733 29.6C184.066 28.8267 185.519 28.44 187.093 28.44ZM221.997 39.48C221.997 40.12 221.957 40.7867 221.877 41.48H206.397C206.503 42.8667 206.943 43.9333 207.717 44.68C208.517 45.4 209.49 45.76 210.637 45.76C212.343 45.76 213.53 45.04 214.197 43.6H221.477C221.103 45.0667 220.423 46.3867 219.437 47.56C218.477 48.7333 217.263 49.6533 215.797 50.32C214.33 50.9867 212.69 51.32 210.877 51.32C208.69 51.32 206.743 50.8533 205.037 49.92C203.33 48.9867 201.997 47.6533 201.037 45.92C200.077 44.1867 199.597 42.16 199.597 39.84C199.597 37.52 200.063 35.4933 200.997 33.76C201.957 32.0267 203.29 30.6933 204.997 29.76C206.703 28.8267 208.663 28.36 210.877 28.36C213.037 28.36 214.957 28.8133 216.637 29.72C218.317 30.6267 219.623 31.92 220.557 33.6C221.517 35.28 221.997 37.24 221.997 39.48ZM214.997 37.68C214.997 36.5067 214.597 35.5733 213.797 34.88C212.997 34.1867 211.997 33.84 210.797 33.84C209.65 33.84 208.677 34.1733 207.877 34.84C207.103 35.5067 206.623 36.4533 206.437 37.68H214.997ZM232.445 32.4C233.245 31.1733 234.245 30.2133 235.445 29.52C236.645 28.8 237.978 28.44 239.445 28.44V35.68H237.565C235.858 35.68 234.578 36.0533 233.725 36.8C232.872 37.52 232.445 38.8 232.445 40.64V51H225.605V28.68H232.445V32.4ZM261.354 31.8C260.848 30.8667 260.114 30.16 259.154 29.68C258.221 29.1733 257.114 28.92 255.834 28.92C253.621 28.92 251.848 29.6533 250.514 31.12C249.181 32.56 248.514 34.4933 248.514 36.92C248.514 39.5067 249.208 41.5333 250.594 43C252.008 44.44 253.941 45.16 256.394 45.16C258.074 45.16 259.488 44.7333 260.634 43.88C261.808 43.0267 262.661 41.8 263.194 40.2H254.514V35.16H269.394V41.52C268.888 43.2267 268.021 44.8133 266.794 46.28C265.594 47.7467 264.061 48.9333 262.194 49.84C260.328 50.7467 258.221 51.2 255.874 51.2C253.101 51.2 250.621 50.6 248.434 49.4C246.274 48.1733 244.581 46.48 243.354 44.32C242.154 42.16 241.554 39.6933 241.554 36.92C241.554 34.1467 242.154 31.68 243.354 29.52C244.581 27.3333 246.274 25.64 248.434 24.44C250.594 23.2133 253.061 22.6 255.834 22.6C259.194 22.6 262.021 23.4133 264.314 25.04C266.634 26.6667 268.168 28.92 268.914 31.8H261.354Z" fill="white"/>
</svg>
