<svg width="80" height="78" viewBox="0 0 80 78" fill="none" xmlns="http://www.w3.org/2000/svg">
<circle cx="38.7879" cy="38.7879" r="38.7879" fill="#F2D5A9"/>
<path d="M38.7879 77.5758C43.8816 77.5758 48.9254 76.5725 53.6314 74.6232C58.3373 72.6739 62.6133 69.8168 66.215 66.215C69.8168 62.6133 72.6739 58.3373 74.6232 53.6314C76.5725 48.9254 77.5758 43.8816 77.5758 38.7879C77.5758 33.6942 76.5725 28.6504 74.6232 23.9444C72.6739 19.2384 69.8168 14.9625 66.215 11.3607C62.6133 7.75892 58.3373 4.90182 53.6314 2.95255C48.9254 1.00328 43.8816 -2.22653e-07 38.7879 0V38.7879V77.5758Z" fill="#008C76"/>
<path d="M37.856 32.851C38.2713 32.1356 39.3044 32.1356 39.7196 32.851L55.0172 59.2032C55.4342 59.9215 54.916 60.8215 54.0854 60.8215H23.4902C22.6597 60.8215 22.1414 59.9215 22.5584 59.2032L37.856 32.851Z" fill="#F2D5A9"/>
<path d="M37.8564 22.0735C38.2718 21.359 39.3039 21.359 39.7193 22.0735L51.2831 41.9635C51.7007 42.6818 51.1825 43.5825 50.3517 43.5825H27.2241C26.3932 43.5825 25.875 42.6818 26.2926 41.9635L37.8564 22.0735Z" fill="#F2D5A9"/>
<path d="M37.8572 16.0319C38.273 15.3195 39.3024 15.3195 39.7182 16.0319L46.4262 27.5242C46.8455 28.2425 46.3274 29.1448 45.4957 29.1448H32.0797C31.248 29.1448 30.7299 28.2425 31.1492 27.5242L37.8572 16.0319Z" fill="#F2D5A9"/>
<mask id="mask0_324_212" style="mask-type:alpha" maskUnits="userSpaceOnUse" x="0" y="0" width="39" height="78">
<path d="M38.7878 77.7912C33.6941 77.7912 28.6503 76.788 23.9444 74.8387C19.2384 72.8894 14.9625 70.0323 11.3607 66.4305C7.75888 62.8287 4.90179 58.5528 2.95251 53.8468C1.00324 49.1409 -3.8147e-05 44.0971 -3.8147e-05 39.0034C-3.8147e-05 33.9097 1.00324 28.8658 2.95251 24.1599C4.90179 19.4539 7.75888 15.178 11.3607 11.5762C14.9625 7.9744 19.2384 5.11731 23.9444 3.16804C28.6503 1.21876 33.6941 0.215484 38.7878 0.215485V39.0034V77.7912Z" fill="#D18A79"/>
</mask>
<g mask="url(#mask0_324_212)">
<path d="M37.856 32.851C38.2713 32.1356 39.3044 32.1356 39.7196 32.851L55.0172 59.2032C55.4342 59.9215 54.916 60.8215 54.0854 60.8215H23.4902C22.6597 60.8215 22.1414 59.9215 22.5584 59.2032L37.856 32.851Z" fill="#008C76"/>
<path d="M37.8564 22.0735C38.2718 21.359 39.3039 21.359 39.7193 22.0735L51.2831 41.9635C51.7007 42.6818 51.1825 43.5825 50.3517 43.5825H27.2241C26.3932 43.5825 25.875 42.6818 26.2926 41.9635L37.8564 22.0735Z" fill="#008C76"/>
<path d="M37.8572 16.0319C38.273 15.3195 39.3024 15.3195 39.7182 16.0319L46.4262 27.5242C46.8455 28.2425 46.3274 29.1448 45.4957 29.1448H32.0797C31.248 29.1448 30.7299 28.2425 31.1492 27.5242L37.8572 16.0319Z" fill="#008C76"/>
</g>
</svg>
