<svg width="312" height="78" viewBox="0 0 312 78" fill="none" xmlns="http://www.w3.org/2000/svg">
<circle cx="38.7879" cy="38.7879" r="38.7879" fill="#F2D5A9"/>
<path d="M38.7879 77.5758C43.8816 77.5758 48.9254 76.5725 53.6314 74.6232C58.3373 72.6739 62.6133 69.8168 66.2151 66.2151C69.8168 62.6133 72.6739 58.3373 74.6232 53.6314C76.5725 48.9254 77.5758 43.8816 77.5758 38.7879C77.5758 33.6942 76.5725 28.6504 74.6232 23.9444C72.6739 19.2384 69.8168 14.9625 66.2151 11.3607C62.6133 7.75892 58.3373 4.90182 53.6314 2.95255C48.9254 1.00328 43.8816 -2.22653e-07 38.7879 0L38.7879 38.7879L38.7879 77.5758Z" fill="#008C76"/>
<path d="M37.856 32.851C38.2713 32.1356 39.3044 32.1356 39.7196 32.851L55.0172 59.2032C55.4342 59.9215 54.9159 60.8215 54.0854 60.8215H23.4902C22.6597 60.8215 22.1414 59.9215 22.5584 59.2032L37.856 32.851Z" fill="#F2D5A9"/>
<path d="M37.8564 22.0735C38.2718 21.359 39.3039 21.359 39.7193 22.0735L51.2831 41.9635C51.7007 42.6818 51.1825 43.5825 50.3517 43.5825H27.2241C26.3932 43.5825 25.875 42.6818 26.2926 41.9635L37.8564 22.0735Z" fill="#F2D5A9"/>
<path d="M37.8572 16.0319C38.273 15.3195 39.3024 15.3195 39.7182 16.0319L46.4262 27.5242C46.8455 28.2425 46.3274 29.1448 45.4957 29.1448H32.0797C31.248 29.1448 30.7299 28.2425 31.1492 27.5242L37.8572 16.0319Z" fill="#F2D5A9"/>
<mask id="mask0_664_243" style="mask-type:alpha" maskUnits="userSpaceOnUse" x="0" y="0" width="39" height="78">
<path d="M38.7878 77.7913C33.6941 77.7913 28.6503 76.788 23.9444 74.8387C19.2384 72.8894 14.9625 70.0323 11.3607 66.4305C7.75888 62.8288 4.90179 58.5528 2.95251 53.8469C1.00324 49.1409 -3.8147e-05 44.0971 -3.8147e-05 39.0034C-3.8147e-05 33.9097 1.00324 28.8659 2.95251 24.1599C4.90179 19.4539 7.75888 15.178 11.3607 11.5762C14.9625 7.97441 19.2384 5.11732 23.9444 3.16804C28.6503 1.21877 33.6941 0.215492 38.7878 0.215492V39.0034V77.7913Z" fill="#D18A79"/>
</mask>
<g mask="url(#mask0_664_243)">
<path d="M37.856 32.851C38.2713 32.1356 39.3044 32.1356 39.7196 32.851L55.0172 59.2032C55.4342 59.9215 54.9159 60.8215 54.0854 60.8215H23.4902C22.6597 60.8215 22.1414 59.9215 22.5584 59.2032L37.856 32.851Z" fill="#008C76"/>
<path d="M37.8564 22.0735C38.2718 21.359 39.3039 21.359 39.7193 22.0735L51.2831 41.9635C51.7007 42.6818 51.1825 43.5825 50.3517 43.5825H27.2241C26.3932 43.5825 25.875 42.6818 26.2926 41.9635L37.8564 22.0735Z" fill="#008C76"/>
<path d="M37.8572 16.0319C38.273 15.3195 39.3024 15.3195 39.7182 16.0319L46.4262 27.5242C46.8455 28.2425 46.3274 29.1448 45.4957 29.1448H32.0797C31.248 29.1448 30.7299 28.2425 31.1492 27.5242L37.8572 16.0319Z" fill="#008C76"/>
</g>
<path d="M110.76 22.92V28.4H99.32V34.32H107.88V39.64H99.32V51H92.48V22.92H110.76ZM112.995 39.8C112.995 37.5067 113.422 35.4933 114.275 33.76C115.155 32.0267 116.342 30.6933 117.835 29.76C119.328 28.8267 120.995 28.36 122.835 28.36C124.408 28.36 125.782 28.68 126.955 29.32C128.155 29.96 129.075 30.8 129.715 31.84V28.68H136.555V51H129.715V47.84C129.048 48.88 128.115 49.72 126.915 50.36C125.742 51 124.368 51.32 122.795 51.32C120.982 51.32 119.328 50.8533 117.835 49.92C116.342 48.96 115.155 47.6133 114.275 45.88C113.422 44.12 112.995 42.0933 112.995 39.8ZM129.715 39.84C129.715 38.1333 129.235 36.7867 128.275 35.8C127.342 34.8133 126.195 34.32 124.835 34.32C123.475 34.32 122.315 34.8133 121.355 35.8C120.422 36.76 119.955 38.0933 119.955 39.8C119.955 41.5067 120.422 42.8667 121.355 43.88C122.315 44.8667 123.475 45.36 124.835 45.36C126.195 45.36 127.342 44.8667 128.275 43.88C129.235 42.8933 129.715 41.5467 129.715 39.84ZM148.343 32.4C149.143 31.1733 150.143 30.2133 151.343 29.52C152.543 28.8 153.877 28.44 155.343 28.44V35.68H153.463C151.757 35.68 150.477 36.0533 149.623 36.8C148.77 37.52 148.343 38.8 148.343 40.64V51H141.503V28.68H148.343V32.4ZM187.093 28.44C189.866 28.44 192.066 29.28 193.693 30.96C195.346 32.64 196.173 34.9733 196.173 37.96V51H189.373V38.88C189.373 37.44 188.986 36.3333 188.213 35.56C187.466 34.76 186.426 34.36 185.093 34.36C183.759 34.36 182.706 34.76 181.933 35.56C181.186 36.3333 180.813 37.44 180.813 38.88V51H174.013V38.88C174.013 37.44 173.626 36.3333 172.853 35.56C172.106 34.76 171.066 34.36 169.733 34.36C168.399 34.36 167.346 34.76 166.573 35.56C165.826 36.3333 165.453 37.44 165.453 38.88V51H158.613V28.68H165.453V31.48C166.146 30.5467 167.053 29.8133 168.173 29.28C169.293 28.72 170.559 28.44 171.973 28.44C173.653 28.44 175.146 28.8 176.453 29.52C177.786 30.24 178.826 31.2667 179.573 32.6C180.346 31.3733 181.399 30.3733 182.733 29.6C184.066 28.8267 185.519 28.44 187.093 28.44ZM219.237 22.92V28.4H207.797V34.32H216.357V39.64H207.797V51H200.957V22.92H219.237ZM229.672 32.4C230.472 31.1733 231.472 30.2133 232.672 29.52C233.872 28.8 235.205 28.44 236.672 28.44V35.68H234.792C233.085 35.68 231.805 36.0533 230.952 36.8C230.098 37.52 229.672 38.8 229.672 40.64V51H222.832V28.68H229.672V32.4ZM260.981 39.48C260.981 40.12 260.941 40.7867 260.861 41.48H245.381C245.488 42.8667 245.928 43.9333 246.701 44.68C247.501 45.4 248.474 45.76 249.621 45.76C251.328 45.76 252.514 45.04 253.181 43.6H260.461C260.088 45.0667 259.408 46.3867 258.421 47.56C257.461 48.7333 256.248 49.6533 254.781 50.32C253.314 50.9867 251.674 51.32 249.861 51.32C247.674 51.32 245.728 50.8533 244.021 49.92C242.314 48.9867 240.981 47.6533 240.021 45.92C239.061 44.1867 238.581 42.16 238.581 39.84C238.581 37.52 239.048 35.4933 239.981 33.76C240.941 32.0267 242.274 30.6933 243.981 29.76C245.688 28.8267 247.648 28.36 249.861 28.36C252.021 28.36 253.941 28.8133 255.621 29.72C257.301 30.6267 258.608 31.92 259.541 33.6C260.501 35.28 260.981 37.24 260.981 39.48ZM253.981 37.68C253.981 36.5067 253.581 35.5733 252.781 34.88C251.981 34.1867 250.981 33.84 249.781 33.84C248.634 33.84 247.661 34.1733 246.861 34.84C246.088 35.5067 245.608 36.4533 245.421 37.68H253.981ZM273.669 51.32C271.723 51.32 269.989 50.9867 268.469 50.32C266.949 49.6533 265.749 48.7467 264.869 47.6C263.989 46.4267 263.496 45.12 263.389 43.68H270.149C270.229 44.4533 270.589 45.08 271.229 45.56C271.869 46.04 272.656 46.28 273.589 46.28C274.443 46.28 275.096 46.12 275.549 45.8C276.029 45.4533 276.269 45.0133 276.269 44.48C276.269 43.84 275.936 43.3733 275.269 43.08C274.603 42.76 273.523 42.4133 272.029 42.04C270.429 41.6667 269.096 41.28 268.029 40.88C266.963 40.4533 266.043 39.8 265.269 38.92C264.496 38.0133 264.109 36.8 264.109 35.28C264.109 34 264.456 32.84 265.149 31.8C265.869 30.7333 266.909 29.8933 268.269 29.28C269.656 28.6667 271.296 28.36 273.189 28.36C275.989 28.36 278.189 29.0533 279.789 30.44C281.416 31.8267 282.349 33.6667 282.589 35.96H276.269C276.163 35.1867 275.816 34.5733 275.229 34.12C274.669 33.6667 273.923 33.44 272.989 33.44C272.189 33.44 271.576 33.6 271.149 33.92C270.723 34.2133 270.509 34.6267 270.509 35.16C270.509 35.8 270.843 36.28 271.509 36.6C272.203 36.92 273.269 37.24 274.709 37.56C276.363 37.9867 277.709 38.4133 278.749 38.84C279.789 39.24 280.696 39.9067 281.469 40.84C282.269 41.7467 282.683 42.9733 282.709 44.52C282.709 45.8267 282.336 47 281.589 48.04C280.869 49.0533 279.816 49.8533 278.429 50.44C277.069 51.0267 275.483 51.32 273.669 51.32ZM300.614 28.44C303.174 28.44 305.227 29.2933 306.774 31C308.321 32.68 309.094 35 309.094 37.96V51H302.294V38.88C302.294 37.3867 301.907 36.2267 301.134 35.4C300.361 34.5733 299.321 34.16 298.014 34.16C296.707 34.16 295.667 34.5733 294.894 35.4C294.121 36.2267 293.734 37.3867 293.734 38.88V51H286.894V21.4H293.734V31.68C294.427 30.6933 295.374 29.9067 296.574 29.32C297.774 28.7333 299.121 28.44 300.614 28.44Z" fill="#FFFFFF"/>
</svg>
